<svg xmlns="http://www.w3.org/2000/svg" version="1.1" xmlns:xlink="http://www.w3.org/1999/xlink" xmlns:svgjs="http://svgjs.dev/svgjs" width="2000" height="1247" viewBox="0 0 2000 1247"><g transform="matrix(1,0,0,1,-1.2121212121212466,0.504858299595071)"><svg viewBox="0 0 396 247" data-background-color="#ffffff" preserveAspectRatio="xMidYMid meet" height="1247" width="2000" xmlns="http://www.w3.org/2000/svg" xmlns:xlink="http://www.w3.org/1999/xlink"><g id="tight-bounds" transform="matrix(1,0,0,1,0.2400000000000091,-0.09999999999999432)"><svg viewBox="0 0 395.52 247.2" height="247.2" width="395.52"><g><svg></svg></g><g><svg viewBox="0 0 395.52 247.2" height="247.2" width="395.52"><g transform="matrix(1,0,0,1,75.54432,52.909339636363626)"><svg viewBox="0 0 244.43135999999998 141.38132072727274" height="141.38132072727274" width="244.43135999999998"><g><svg viewBox="0 0 244.43135999999998 141.38132072727274" height="141.38132072727274" width="244.43135999999998"><g><svg viewBox="0 0 244.43135999999998 141.38132072727274" height="141.38132072727274" width="244.43135999999998"><g><svg viewBox="0 0 244.43135999999998 141.38132072727274" height="141.38132072727274" width="244.43135999999998"><g id="textblocktransform"><svg viewBox="0 0 244.43135999999998 141.38132072727274" height="141.38132072727274" width="244.43135999999998" id="textblock"><g><svg viewBox="0 0 244.43135999999998 141.38132072727274" height="141.38132072727274" width="244.43135999999998"><g transform="matrix(1,0,0,1,0,0)"><svg width="244.43135999999998" viewBox="2 -25.2 44 25.45" height="141.38132072727274" data-palette-color="#ccccd1"><path d="M9.1-0.6L9.1-0.6Q9.4-0.6 9.7-0.65L9.7-0.65Q12.3-0.7 14.05-2.27 15.8-3.85 15.8-6.9L15.8-6.9Q15.8-9.9 11.1-11.25L11.1-11.25Q9.15-11.8 7.2-12.45 5.25-13.1 3.88-14.5 2.5-15.9 2.5-18.15L2.5-18.15Q2.5-21.35 4.95-23.28 7.4-25.2 11.15-25.2L11.15-25.2Q13.95-25.2 16.8-24.2L16.8-24.2 17.7-23.85 17.7-18.1 16.75-17.75 16.55-22Q13.65-24.3 11.7-24.3L11.7-24.3Q8.95-24.3 7.35-22.68 5.75-21.05 5.75-18.35L5.75-18.35Q5.75-16.8 7.13-15.85 8.5-14.9 10.45-14.35 12.4-13.8 14.35-13.13 16.3-12.45 17.68-10.93 19.05-9.4 19.05-6.95L19.05-6.95Q19.05-3.65 16.57-1.73 14.1 0.2 9.55 0.2 5 0.2 2-1.95L2-1.95 2-7.7 2.9-8.05 3.15-3.8Q3.85-2.5 5.68-1.55 7.5-0.6 9.1-0.6ZM39.05-1.9L39.05-1.9 38.9-1.9Q34.4 0.2 30.15 0.2L30.15 0.2Q23.5 0.2 23.1-5.05L23.1-5.05Q23.05-5.4 23.05-5.7L23.05-5.7Q23.05-9.55 28.1-10.85L28.1-10.85Q31.1-11.5 38.9-12.4L38.9-12.4 38.9-16.8Q38.9-18.9 38.4-20.4 37.9-21.9 37.3-22.63 36.7-23.35 35.75-23.75L35.75-23.75Q34.55-24.25 33.07-24.25 31.6-24.25 29.7-23.5L29.7-23.5Q26.95-22.35 24.8-20.6L24.8-20.6 24.6-16.7 23.65-16.45 23.65-22.5 24.15-22.7Q28.05-24.4 30.1-24.75 32.15-25.1 33.1-25.13 34.05-25.15 34.92-25.1 35.8-25.05 37.2-24.65 38.6-24.25 39.62-23.53 40.65-22.8 41.4-21.35 42.15-19.9 42.15-17.9L42.15-17.9 42.15-2.6Q42.15-1.05 42.95-1.05L42.95-1.05 46-0.9 45.95-0.15Q43.15 0.25 40.95 0.25L40.95 0.25Q40.35 0.2 39.7-0.38 39.05-0.95 39.05-1.9ZM31.05-0.6L31.05-0.6Q34.75-0.6 38.9-3.2L38.9-3.2 38.9-11.45Q31.4-11.2 29.47-10.58 27.55-9.95 26.82-8.63 26.1-7.3 26.1-6L26.1-6Q26.1-5.75 26.1-5.5L26.1-5.5Q26.25-2.9 27.65-1.75 29.05-0.6 31.05-0.6Z" opacity="1" transform="matrix(1,0,0,1,0,0)" fill="#ffffff" class="wordmark-text-0" data-fill-palette-color="primary" id="text-0"></path></svg></g></svg></g></svg></g></svg></g></svg></g></svg></g></svg></g><g><path d="M0 123.6c0-68.262 55.338-123.6 123.6-123.6 34.141 0 65.049 13.842 87.418 36.221l-9.271 0c-20.739-18.56-48.125-29.846-78.147-29.846-64.742 0-117.225 52.483-117.225 117.225 0 64.742 52.483 117.225 117.225 117.225 30.022 0 57.408-11.286 78.147-29.846h9.271c-22.369 22.379-53.277 36.221-87.418 36.221-68.262 0-123.6-55.338-123.6-123.6z" fill="#ffffff" stroke="transparent" data-fill-palette-color="tertiary"></path></g></svg></g><defs></defs></svg><rect width="395.52" height="247.2" fill="none" stroke="none" visibility="hidden"></rect></g></svg></g></svg>